<svg width="151" height="35" viewBox="0 0 151 35" fill="none" xmlns="http://www.w3.org/2000/svg">
<ellipse cx="11" cy="11" rx="11" ry="11" transform="matrix(-4.37114e-08 -1 -1 4.37114e-08 151 35)" fill="url(#paint0_linear_1179_141)" fill-opacity="0.45"/>
<circle cx="9" cy="9" r="9" transform="matrix(-4.37114e-08 -1 -1 4.37114e-08 120 22)" fill="url(#paint1_linear_1179_141)" fill-opacity="0.45"/>
<ellipse cx="7" cy="7" rx="7" ry="7" transform="matrix(-4.37114e-08 -1 -1 4.37114e-08 91 14)" fill="url(#paint2_linear_1179_141)" fill-opacity="0.45"/>
<ellipse cx="6" cy="6" rx="6" ry="6" transform="matrix(-4.37114e-08 -1 -1 4.37114e-08 64 12)" fill="url(#paint3_linear_1179_141)" fill-opacity="0.45"/>
<circle cx="5" cy="5" r="5" transform="matrix(-4.37114e-08 -1 -1 4.37114e-08 39 15)" fill="url(#paint4_linear_1179_141)" fill-opacity="0.45"/>
<ellipse cx="3" cy="3" rx="3" ry="3" transform="matrix(-4.37114e-08 -1 -1 4.37114e-08 20 19)" fill="url(#paint5_linear_1179_141)" fill-opacity="0.45"/>
<circle cx="2" cy="2" r="2" transform="matrix(-4.37114e-08 -1 -1 4.37114e-08 4 25)" fill="url(#paint6_linear_1179_141)" fill-opacity="0.45"/>
<defs>
<linearGradient id="paint0_linear_1179_141" x1="23.5296" y1="8.74916" x2="-4.12248" y2="7.0437" gradientUnits="userSpaceOnUse">
<stop stop-color="#B0F3C9"/>
<stop offset="0.504808" stop-color="#649D79" stop-opacity="0.4375"/>
<stop offset="1" stop-opacity="0"/>
</linearGradient>
<linearGradient id="paint1_linear_1179_141" x1="19.2515" y1="7.1584" x2="-3.37294" y2="5.76303" gradientUnits="userSpaceOnUse">
<stop stop-color="#B0F3C9"/>
<stop offset="0.504808" stop-color="#649D79" stop-opacity="0.4375"/>
<stop offset="1" stop-opacity="0"/>
</linearGradient>
<linearGradient id="paint2_linear_1179_141" x1="14.9734" y1="5.56765" x2="-2.6234" y2="4.48236" gradientUnits="userSpaceOnUse">
<stop stop-color="#B0F3C9"/>
<stop offset="0.504808" stop-color="#649D79" stop-opacity="0.4375"/>
<stop offset="1" stop-opacity="0"/>
</linearGradient>
<linearGradient id="paint3_linear_1179_141" x1="12.8343" y1="4.77227" x2="-2.24863" y2="3.84202" gradientUnits="userSpaceOnUse">
<stop stop-color="#B0F3C9"/>
<stop offset="0.504808" stop-color="#649D79" stop-opacity="0.4375"/>
<stop offset="1" stop-opacity="0"/>
</linearGradient>
<linearGradient id="paint4_linear_1179_141" x1="10.6953" y1="3.97689" x2="-1.87385" y2="3.20168" gradientUnits="userSpaceOnUse">
<stop stop-color="#B0F3C9"/>
<stop offset="0.504808" stop-color="#649D79" stop-opacity="0.4375"/>
<stop offset="1" stop-opacity="0"/>
</linearGradient>
<linearGradient id="paint5_linear_1179_141" x1="6.41717" y1="2.38613" x2="-1.12431" y2="1.92101" gradientUnits="userSpaceOnUse">
<stop stop-color="#B0F3C9"/>
<stop offset="0.504808" stop-color="#649D79" stop-opacity="0.4375"/>
<stop offset="1" stop-opacity="0"/>
</linearGradient>
<linearGradient id="paint6_linear_1179_141" x1="4.27811" y1="1.59076" x2="-0.749542" y2="1.28067" gradientUnits="userSpaceOnUse">
<stop stop-color="#B0F3C9"/>
<stop offset="0.504808" stop-color="#649D79" stop-opacity="0.4375"/>
<stop offset="1" stop-opacity="0"/>
</linearGradient>
</defs>
</svg>
