<svg width="20" height="20" viewBox="0 0 20 20" fill="none" xmlns="http://www.w3.org/2000/svg"><path d="M4.90172 3.06907C6.96538 4.62164 9.18496 7.76969 10 9.45892C10.815 7.76969 13.0346 4.62164 15.0983 3.06907C16.5873 1.94881 19 1.08201 19 3.84022C19 4.39105 18.6848 8.46765 18.5 9.12954C17.8575 11.4304 15.5162 12.0173 13.4335 11.6621C17.0739 12.283 18 14.3396 16 16.3962C12.2016 20.3021 10.5407 15.4162 10.1151 14.1643C10.037 13.9348 10.0005 13.8274 10 13.9187C9.99946 13.8274 9.96295 13.9348 9.88493 14.1643C9.45934 15.4162 7.79839 20.3021 4 16.3962C2 14.3396 2.92606 12.283 6.56647 11.6621C4.48379 12.0173 2.14254 11.4304 1.5 9.12954C1.31517 8.46765 1 4.39105 1 3.84022C1 1.08201 3.41271 1.94881 4.90172 3.06907Z" stroke="#F3F4F6" stroke-width="0.8" stroke-linejoin="round"></path></svg>